<?xml version="1.0" encoding="UTF-8"?>
<svg version="1.1" xmlns="http://www.w3.org/2000/svg" width="1920" height="1080">
<path d="M0 0 C633.6 0 1267.2 0 1920 0 C1920 356.4 1920 712.8 1920 1080 C1286.4 1080 652.8 1080 0 1080 C0 723.6 0 367.2 0 0 Z " fill="#C99AF3" transform="translate(0,0)"/>
<path d="M0 0 C0.66 0 1.32 0 2 0 C2.3810791 0.69222656 2.7621582 1.38445312 3.15478516 2.09765625 C10.55117222 15.51590013 18.03211875 28.86673254 25.79736328 42.07617188 C29.95669651 49.16772401 34.00256043 56.31608255 38 63.5 C43.13337628 72.72418094 48.39577525 81.86240752 53.74121094 90.96508789 C58.00176033 98.23964778 62.14818919 105.57240396 66.25 112.9375 C70.42411754 120.43139355 74.64991 127.88213286 79.0300293 135.25732422 C88.95509865 152.01101777 98.49884374 169.00348714 108 186 C110.50759872 182.77816263 112.6716892 179.41262286 114.8125 175.9375 C115.78123047 174.37322266 115.78123047 174.37322266 116.76953125 172.77734375 C119.08800504 168.92387307 121.20901717 164.9679251 123.35083008 161.0144043 C126.30567103 155.6134537 129.37659538 150.27882754 132.4375 144.9375 C133.1404935 143.70932779 133.84345509 142.48113731 134.54638672 141.25292969 C144.62995761 123.64227071 154.77611205 106.06836859 165.01220703 88.54589844 C168.96489936 81.7791402 172.89852542 75.0016821 176.81958008 68.21655273 C179.91251402 62.86827232 183.02401376 57.53106664 186.1418457 52.19726562 C196.25752167 34.88990106 206.20363028 17.48998331 216 0 C218.72535098 3.28097282 221.03219711 6.55856932 223.14453125 10.26171875 C223.73097412 11.28450928 224.31741699 12.3072998 224.92163086 13.36108398 C225.54561768 14.45880127 226.16960449 15.55651855 226.8125 16.6875 C227.47812903 17.85060974 228.14423509 19.01344659 228.81079102 20.17602539 C230.19320369 22.58824053 231.57357285 25.00160557 232.95214844 27.41601562 C236.10152931 32.93031076 239.26736765 38.43511311 242.4375 43.9375 C243.36042847 45.53984497 243.36042847 45.53984497 244.30200195 47.17456055 C248.81079824 54.9840742 253.39105212 62.74924693 258 70.5 C266.42283363 84.66446992 274.64825543 98.93879973 282.85449219 113.22949219 C290.48154397 126.50561757 298.18808762 139.72826896 306.01489258 152.88769531 C311.24749787 161.69796011 316.38811357 170.55842611 321.49609375 179.44140625 C325.63759815 186.64326443 329.8069983 193.82800863 334 201 C338.82451774 209.25217877 343.60993611 217.52586488 348.375 225.8125 C353.51654745 234.74874463 358.72979536 243.63905737 364 252.5 C372.42297534 266.66438366 380.64825698 280.93880244 388.85449219 295.22949219 C395.82676335 307.36586529 402.84616745 319.46957765 410 331.5 C418.42283363 345.66446992 426.64825543 359.93879973 434.85449219 374.22949219 C441.82676335 386.36586529 448.84616745 398.46957765 456 410.5 C463.7883538 423.59748095 471.41072439 436.78644214 479 450 C481.04544267 453.55994171 483.09182201 457.1193407 485.14038086 460.67749023 C486.42514434 462.9092709 487.7085967 465.14180707 488.99047852 467.37524414 C491.56204108 471.84235275 494.14953356 476.27624538 496.9296875 480.6171875 C499 484 499 484 499 486 C439.01475487 487.37172141 379.00187371 488.28677366 319 488 C318.67950684 487.42894531 318.35901367 486.85789062 318.02880859 486.26953125 C311.52051013 474.68489811 304.96483807 463.12760184 298.3125 451.625 C297.7129248 450.57957031 297.11334961 449.53414062 296.49560547 448.45703125 C295.93631348 447.49410156 295.37702148 446.53117187 294.80078125 445.5390625 C294.30747314 444.68521973 293.81416504 443.83137695 293.3059082 442.95166016 C292.14280768 440.86529504 292.14280768 440.86529504 290 440 C289.34055469 438.44512058 288.68622004 436.8879785 288.04931641 435.32373047 C285.66187225 430.0366915 282.58708678 425.08125556 279.6875 420.0625 C278.96802238 418.81100996 278.2487877 417.55938023 277.52978516 416.30761719 C271.30840298 405.48829674 265.02376234 394.70572987 258.71777344 383.93554688 C256.39180182 379.9606346 254.07153414 375.98240801 251.75170898 372.00390625 C250.59285012 370.016645 249.43351513 368.02966133 248.27368164 366.04296875 C245.21240483 360.79876709 242.15821687 355.550584 239.11328125 350.296875 C238.47712891 349.20117188 237.84097656 348.10546875 237.18554688 346.9765625 C235.96474947 344.87358304 234.74590247 342.76946977 233.52929688 340.6640625 C232.70461914 339.24480469 232.70461914 339.24480469 231.86328125 337.796875 C231.38157471 336.96510742 230.89986816 336.13333984 230.40356445 335.27636719 C229.04810544 333.07801968 227.58375485 331.03830508 226 329 C222.77075582 330.35315432 221.32232331 331.56231812 219.59765625 334.59765625 C218.97745605 335.67031738 218.97745605 335.67031738 218.34472656 336.76464844 C217.9215918 337.52293945 217.49845703 338.28123047 217.0625 339.0625 C216.40652832 340.21733887 216.40652832 340.21733887 215.73730469 341.39550781 C214.87533004 342.91471406 214.01698005 344.43598368 213.16259766 345.95947266 C212.20231703 347.6449043 211.19154404 349.30145896 210.16796875 350.94921875 C209.70003906 351.70847656 209.23210937 352.46773437 208.75 353.25 C208.35296875 353.87390625 207.9559375 354.4978125 207.546875 355.140625 C206.4571961 358.84553328 208.96058395 361.92586467 210.671875 365.14453125 C211.36088811 366.3692737 212.05389431 367.5917748 212.75 368.8125 C213.13776611 369.49771729 213.52553223 370.18293457 213.92504883 370.88891602 C218.04536087 378.13898118 222.27707703 385.32420249 226.49316406 392.51879883 C231.35247626 400.83470176 236.06520802 409.22655205 240.7487793 417.64233398 C245.30742154 425.8133173 250.00335428 433.8970468 254.74121094 441.96508789 C259.60872139 450.27598704 264.32070206 458.66844065 269.00048828 467.08618164 C272.9345128 474.14732328 276.96663109 481.14024184 281.15722656 488.05249023 C284 492.79024435 284 492.79024435 284 495 C272.43702269 495.10948194 260.88970286 495.09046708 249.33209008 494.71226007 C219.63516627 493.74597434 189.93011501 493.86837251 160.22152937 493.89646217 C152.2887333 493.90375673 144.35593898 493.9051251 136.42314004 493.90625793 C122.28575244 493.9084261 108.14837074 493.9150243 94.01098633 493.92456055 C80.30883818 493.93379338 66.60669166 493.94084517 52.90454102 493.94506836 C52.05453251 493.94533108 51.204524 493.94559381 50.32875765 493.94586449 C46.06289988 493.94716989 41.7970421 493.94843351 37.53118432 493.94967639 C2.35411868 493.95997913 -32.82294011 493.97753504 -68 494 C-67.32401882 491.13914983 -66.50567573 488.83901648 -65.06640625 486.26953125 C-64.47243042 485.2031543 -64.47243042 485.2031543 -63.86645508 484.11523438 C-63.4361499 483.35533203 -63.00584473 482.59542969 -62.5625 481.8125 C-62.11221436 481.01005859 -61.66192871 480.20761719 -61.19799805 479.38085938 C-57.89954079 473.52766391 -54.51930549 467.72506288 -51.0949707 461.94482422 C-47.26260082 455.47143411 -43.50312589 448.95709541 -39.75 442.4375 C-34.71448085 433.69240509 -29.65442524 424.96237506 -24.5625 416.25 C-21.01577735 410.1810664 -17.47560083 404.10997344 -14 398 C-10.31100257 391.51824746 -6.56554516 385.06985773 -2.8125 378.625 C-2.21759766 377.60148437 -1.62269531 376.57796875 -1.00976562 375.5234375 C-0.43548828 374.53859375 0.13878906 373.55375 0.73046875 372.5390625 C1.55683838 371.1164209 1.55683838 371.1164209 2.39990234 369.66503906 C4.22241192 366.62956233 6.18507089 363.7099008 8.2434082 360.82958984 C9.33738027 358.18414722 8.83757811 356.71438749 8 354 C5.9829776 349.78829001 3.59160548 345.78855844 1.25 341.75 C0.62867188 340.63625 0.00734375 339.5225 -0.6328125 338.375 C-1.24382812 337.31796875 -1.85484375 336.2609375 -2.484375 335.171875 C-3.03834961 334.2034668 -3.59232422 333.23505859 -4.16308594 332.23730469 C-5.83875313 329.77374358 -5.83875313 329.77374358 -8.71972656 329.17675781 C-9.4722168 329.11842773 -10.22470703 329.06009766 -11 329 C-11.37584229 329.65669678 -11.75168457 330.31339355 -12.13891602 330.98999023 C-19.17355111 343.26736925 -26.2552823 355.50723741 -33.5625 367.625 C-38.9707953 376.59442818 -44.30688504 385.60110159 -49.5637207 394.66015625 C-52.87789051 400.37026401 -56.21757971 406.06395223 -59.5859375 411.7421875 C-60.75724967 413.72181355 -61.92806315 415.7017336 -63.09869385 417.6817627 C-63.85884113 418.96478073 -64.62096978 420.24662719 -65.38519287 421.52722168 C-66.45469545 423.31981396 -67.51704742 425.11647412 -68.578125 426.9140625 C-69.19075195 427.9448291 -69.80337891 428.9755957 -70.43457031 430.03759766 C-72.09071913 432.948952 -72.09071913 432.948952 -72.96386719 436.13037109 C-74.13824097 439.38286624 -75.5237061 440.63992102 -78 443 C-79.32195269 445.03267253 -80.58096996 447.10694185 -81.79296875 449.20703125 C-82.14329666 449.80948166 -82.49362457 450.41193207 -82.85456848 451.03263855 C-83.9714425 452.95591409 -85.07976392 454.88394964 -86.1875 456.8125 C-87.27915126 458.70070217 -88.37262388 460.58783544 -89.46687317 462.47453308 C-90.47465552 464.21411264 -91.47808783 465.95621025 -92.48120117 467.69848633 C-92.86246155 468.31438126 -93.24372192 468.93027618 -93.63653564 469.56483459 C-94.78875721 471.62271758 -95.70170744 473.62029603 -96.62176514 475.78465271 C-101.221216 485.82044023 -101.221216 485.82044023 -105.86239433 487.79056358 C-111.46225127 488.96925178 -117.14256709 488.38821176 -122.8046875 487.99609375 C-124.70502986 487.92178939 -126.60569096 487.85528623 -128.50656128 487.79600525 C-132.56664911 487.66029585 -136.62231633 487.48475057 -140.67956543 487.28143311 C-146.99839672 486.97911942 -153.31258607 486.8516576 -159.63769531 486.77001953 C-161.22436571 486.74911538 -161.22436571 486.74911538 -162.84309006 486.72778893 C-164.99869475 486.69965689 -167.15430266 486.67176952 -169.30991364 486.64412308 C-174.80083765 486.56586706 -180.2909729 486.45204366 -185.78125 486.33789062 C-186.87836933 486.31524454 -187.97548866 486.29259846 -189.10585403 486.26926613 C-191.32921812 486.22333485 -193.55258009 486.17730078 -195.77593994 486.13116455 C-200.26131625 486.03920252 -204.74677582 485.9517492 -209.23224258 485.86432838 C-233.82632853 485.38398684 -258.41497808 484.82913543 -283 484 C-282.10604934 479.95973646 -280.29788185 476.68612788 -278.25 473.125 C-277.85296875 472.42721436 -277.4559375 471.72942871 -277.046875 471.01049805 C-272.66705164 463.34998002 -268.15874852 455.76456597 -263.65625 448.17578125 C-259.57865719 441.29876414 -255.53925595 434.39957039 -251.5 427.5 C-246.00383167 418.11426607 -240.49034471 408.73912324 -234.94873047 399.38012695 C-231.9346091 394.2857128 -228.93339921 389.18394476 -225.9453125 384.07421875 C-225.41824203 383.17303566 -225.41824203 383.17303566 -224.88052368 382.25364685 C-224.52533661 381.64634232 -224.17014954 381.03903778 -223.80419922 380.41333008 C-223.07781758 379.17137613 -222.35141775 377.92943282 -221.625 376.6875 C-221.26472717 376.07151947 -220.90445435 375.45553894 -220.53326416 374.82089233 C-215.53738637 366.28325263 -210.48409874 357.78306026 -205.375 349.3125 C-199.67032489 339.85261077 -194.1201115 330.31233969 -188.62451172 320.72973633 C-183.73196427 312.21843699 -178.69909745 303.79850515 -173.625 295.39453125 C-169.15968389 287.98024596 -164.80571751 280.50795122 -160.5 273 C-154.9622654 263.34524019 -149.29738537 253.77651752 -143.55029297 244.24511719 C-137.55929633 234.29809646 -131.71585567 224.26824713 -125.88037109 214.22949219 C-122.41112297 208.27114186 -118.9246127 202.32290759 -115.4375 196.375 C-114.89419037 195.44814392 -114.89419037 195.44814392 -114.33990479 194.50256348 C-109.22962275 185.78601364 -104.09960083 177.08132027 -98.95288086 168.38623047 C-94.44756307 160.76978266 -89.97199729 153.1360343 -85.5 145.5 C-80.00343649 136.1144962 -74.49034604 126.73912549 -68.94873047 117.38012695 C-65.9346091 112.2857128 -62.93339921 107.18394476 -59.9453125 102.07421875 C-59.59393219 101.47343002 -59.24255188 100.8726413 -58.88052368 100.25364685 C-58.52533661 99.64634232 -58.17014954 99.03903778 -57.80419922 98.41333008 C-57.07781758 97.17137613 -56.35141775 95.92943282 -55.625 94.6875 C-55.26472717 94.07151947 -54.90445435 93.45553894 -54.53326416 92.82089233 C-49.53738637 84.28325263 -44.48409874 75.78306026 -39.375 67.3125 C-33.6800019 57.86865786 -28.13748289 48.34552039 -22.65307617 38.77807617 C-17.46688987 29.75300464 -12.13636279 20.82221599 -6.74609375 11.91796875 C-5.85664062 10.44650391 -5.85664062 10.44650391 -4.94921875 8.9453125 C-4.42674561 8.08437988 -3.90427246 7.22344727 -3.3659668 6.33642578 C-2.15111501 4.25847554 -1.04538781 2.16712242 0 0 Z " fill="#F9FCFD" transform="translate(818,237)"/>
<path d="M0 0 C3.67708071 1.45047816 4.99605687 3.1262042 6.92578125 6.53125 C7.46702637 7.47331299 8.00827148 8.41537598 8.56591797 9.38598633 C9.14229004 10.41361084 9.71866211 11.44123535 10.3125 12.5 C10.92496582 13.57080811 11.53743164 14.64161621 12.16845703 15.74487305 C13.46665292 18.01547869 14.76049096 20.28858062 16.05029297 22.56396484 C19.13220519 27.99532379 22.25421509 33.40341451 25.375 38.8125 C26.30372925 40.42608398 26.30372925 40.42608398 27.2512207 42.07226562 C31.77399951 49.91772417 36.3708639 57.71690385 41 65.5 C49.42297534 79.66438366 57.64825698 93.93880244 65.85449219 108.22949219 C72.82676335 120.36586529 79.84616745 132.46957765 87 144.5 C95.42283363 158.66446992 103.64825543 172.93879973 111.85449219 187.22949219 C118.82676335 199.36586529 125.84616745 211.46957765 133 223.5 C141.42283363 237.66446992 149.64825543 251.93879973 157.85449219 266.22949219 C165.68305901 279.85638731 173.58384829 293.43470843 181.63452148 306.93139648 C192 324.33386695 192 324.33386695 192 327 C187.39683316 327.73591164 182.99013013 328.12275273 178.33032227 328.11352539 C177.04952286 328.11344986 175.76872345 328.11337433 174.44911194 328.11329651 C173.07154297 328.10819145 171.69397441 328.10297548 170.31640625 328.09765625 C168.8915156 328.0957886 167.46662431 328.09436634 166.04173279 328.09336853 C162.3115966 328.08957066 158.58150004 328.07976402 154.85137939 328.06866455 C151.03699275 328.05839141 147.22259964 328.05385832 143.40820312 328.04882812 C135.93878412 328.03813902 128.46939764 328.0210958 121 328 C120.64743134 327.37297684 120.29486267 326.74595367 119.93161011 326.09992981 C113.43924735 314.56161699 106.93249684 303.04345005 100.125 291.6875 C94.16824691 281.69191517 88.30465532 271.64657167 82.50439453 261.55932617 C78.36263183 254.35727919 74.19314947 247.17224413 70 240 C65.1754825 231.74782165 60.39000545 223.47416852 55.625 215.1875 C50.42346131 206.14568069 45.1460062 197.15182218 39.8125 188.1875 C34.60972348 179.44100195 29.47975369 170.6603108 24.4543457 161.81079102 C19.93796698 153.86378304 15.33383122 145.96907297 10.71826172 138.0793457 C7.7863851 133.067152 4.86882677 128.04857261 2 123 C1.34 123 0.68 123 0 123 C-0.4125 123.74983154 -0.825 124.49966309 -1.25 125.2722168 C-2.82053232 128.1234078 -4.39397155 130.97295704 -5.96923828 133.8215332 C-6.64321332 135.04161639 -7.31611037 136.26229585 -7.98779297 137.48364258 C-12.12999333 145.01350455 -16.43208531 152.39485891 -20.97363281 159.6940918 C-24.20814367 164.97102089 -27.27101069 170.3436302 -30.32958984 175.72387695 C-31.39295467 177.59407792 -32.45991291 179.46219539 -33.52734375 181.33007812 C-37.41604709 188.08317915 -37.41604709 188.08317915 -41 195 C-41.66 195 -42.32 195 -43 195 C-43.3810791 194.30777344 -43.7621582 193.61554688 -44.15478516 192.90234375 C-51.72953567 179.16051969 -59.38308887 165.48110204 -67.34228516 151.95703125 C-68.40418545 150.15240357 -69.46127009 148.34493044 -70.51269531 146.53417969 C-71.49876969 144.85403326 -72.50848206 143.18752359 -73.54199219 141.53613281 C-74.01024414 140.76366211 -74.47849609 139.99119141 -74.9609375 139.1953125 C-75.58814697 138.19395264 -75.58814697 138.19395264 -76.22802734 137.17236328 C-77.66648533 133.12448245 -76.42060865 129.8877251 -74.63989258 126.12939453 C-74.06392334 125.14052246 -73.4879541 124.15165039 -72.89453125 123.1328125 C-72.24798584 122.01245605 -71.60144043 120.89209961 -70.93530273 119.73779297 C-70.22788901 118.53341868 -69.52028322 117.32915719 -68.8125 116.125 C-68.08260957 114.86781736 -67.35353525 113.61016059 -66.62524414 112.35205078 C-64.77616751 109.16283029 -62.91650904 105.97993555 -61.05310059 102.79907227 C-59.48114882 100.1136167 -57.91654749 97.42389491 -56.3515625 94.734375 C-54.07079306 90.81773217 -51.78491379 86.90413032 -49.49609375 82.9921875 C-45.80502077 76.67623582 -42.15089057 70.33923945 -38.5 64 C-32.53741158 53.65007872 -26.53877283 43.32194025 -20.5078125 33.01171875 C-18.02960293 28.77267606 -15.5690149 24.52388548 -13.1171875 20.26953125 C-12.48047119 19.16818848 -11.84375488 18.0668457 -11.18774414 16.93212891 C-9.96442101 14.81548207 -8.74468446 12.6967571 -7.52905273 10.57568359 C-6.97934814 9.6264502 -6.42964355 8.6772168 -5.86328125 7.69921875 C-5.14072144 6.44371216 -5.14072144 6.44371216 -4.40356445 5.1628418 C-3.09689423 3.14931048 -1.76636878 1.61294181 0 0 Z " fill="#C99AF3" transform="translate(1036,347)"/>
<path d="M0 0 C2.28515625 0.1875 2.28515625 0.1875 5 1 C6.74609375 3.0625 6.74609375 3.0625 8.4375 6 C8.76476074 6.55905029 9.09202148 7.11810059 9.42919922 7.6940918 C10.64133836 9.78425829 11.82172415 11.89055587 13 14 C13.49677246 14.88381348 13.99354492 15.76762695 14.50537109 16.67822266 C16.82546817 20.80800934 19.13997974 24.9408052 21.44311523 29.08007812 C25.54183223 36.43944619 29.73303677 43.73704557 34 51 C38.76451996 59.11405334 43.42422359 67.27804152 48 75.5 C53.81909241 85.95457128 59.80409097 96.3034863 65.85546875 106.625 C69.09781735 112.15612239 72.2857015 117.71648047 75.44921875 123.29296875 C76.96082107 126.02173454 76.96082107 126.02173454 78.76953125 128.55078125 C80.32644941 131.64978978 79.92992993 132.70480698 79 136 C77.74755859 138.54174805 77.74755859 138.54174805 76.1484375 141.26171875 C75.55135986 142.28612061 74.95428223 143.31052246 74.33911133 144.3659668 C73.69095459 145.46207275 73.04279785 146.55817871 72.375 147.6875 C71.36020216 149.42404126 70.34541569 151.16058929 69.33131409 152.89753723 C68.27260982 154.70896679 67.21092456 156.51862533 66.14892578 158.328125 C62.67059311 164.26222723 59.24503029 170.22683654 55.8125 176.1875 C54.58993089 178.30603987 53.36727986 180.42453247 52.14453125 182.54296875 C49.75304248 186.68967864 47.3705311 190.84127671 45 195 C42.20913665 193.60456833 41.68684271 191.81644852 40.25 189.0625 C38.25587712 185.31141934 36.21217543 181.62680341 34 178 C32.01332704 174.73199788 30.12468723 171.43407582 28.3125 168.06640625 C24.97230182 161.9148746 21.51828497 155.83117178 18.04101562 149.7565918 C16.99968692 147.93695292 15.9606769 146.1160042 14.921875 144.29492188 C11.39568291 138.1250262 7.82617525 132.0001615 4.03125 125.99047852 C3 124 3 124 3 121 C-1.35751949 124.71158131 -3.7077291 129.44171161 -6.4375 134.375 C-7.51419826 136.28986543 -8.59236893 138.20390356 -9.671875 140.1171875 C-10.22423828 141.0978418 -10.77660156 142.07849609 -11.34570312 143.08886719 C-13.90467586 147.59199453 -16.54208151 152.04727052 -19.1875 156.5 C-22.83270871 162.64288247 -26.46889811 168.79063452 -30.07421875 174.95703125 C-30.42436539 175.5558461 -30.77451202 176.15466095 -31.13526917 176.7716217 C-31.85279534 177.99881289 -32.57030927 179.22601123 -33.28781128 180.45321655 C-39.0073635 190.23465429 -44.77261324 199.98465593 -50.625 209.6875 C-56.47212949 219.3832648 -62.16314364 229.16170424 -67.80175781 238.97998047 C-71.27098343 245.01687149 -74.77621147 251.02289552 -78.3840332 256.97802734 C-82.34269279 263.52985665 -86.19682813 270.14308296 -90.0625 276.75 C-95.59310313 286.19922842 -101.13565727 295.64113861 -106.71383667 305.06237793 C-107.72139883 306.76419146 -108.72802275 308.46656037 -109.73461914 310.16894531 C-110.66262329 311.73467285 -110.66262329 311.73467285 -111.609375 313.33203125 C-112.14530273 314.23671143 -112.68123047 315.1413916 -113.23339844 316.07348633 C-114.10786621 317.5221106 -114.10786621 317.5221106 -115 319 C-115.34222092 319.69745331 -115.68444183 320.39490662 -116.03703308 321.11349487 C-117.20534317 323.32570734 -118.30314999 325.15897307 -120 327 C-123.18067629 327.68553935 -125.00932497 327.79941869 -128.14453125 327.53125 C-129.85235734 327.45789044 -131.56020365 327.38500086 -133.26806641 327.3125 C-134.18896057 327.25900391 -135.10985474 327.20550781 -136.05865479 327.15039062 C-140.25219036 326.93597566 -144.44388476 326.88733784 -148.64205933 326.82885742 C-152.02804735 326.78101931 -155.41325336 326.7156258 -158.79882812 326.64453125 C-159.92877197 326.62084473 -161.05871582 326.5971582 -162.22290039 326.57275391 C-163.36621826 326.54874512 -164.50953613 326.52473633 -165.6875 326.5 C-168.05793912 326.45164687 -170.42838182 326.4034687 -172.79882812 326.35546875 C-178.53259475 326.23899046 -184.2663139 326.12037407 -190 326 C-189.28386968 322.02617371 -188.19215744 319.20397046 -186.1484375 315.703125 C-185.55224609 314.67509766 -184.95605469 313.64707031 -184.34179688 312.58789062 C-183.69275391 311.48638672 -183.04371094 310.38488281 -182.375 309.25 C-181.69550665 308.08555295 -181.01647786 306.9208347 -180.33789062 305.75585938 C-175.18061152 296.92310071 -169.9140049 288.15586515 -164.62841797 279.39941406 C-160.16124276 271.98392643 -155.80670352 264.50967055 -151.5 257 C-145.9622654 247.34524019 -140.29738537 237.77651752 -134.55029297 228.24511719 C-128.55929633 218.29809646 -122.71585567 208.26824713 -116.88037109 198.22949219 C-113.41112297 192.27114186 -109.9246127 186.32290759 -106.4375 180.375 C-106.07529358 179.75709595 -105.71308716 179.13919189 -105.33990479 178.50256348 C-100.22962275 169.78601364 -95.09960083 161.08132027 -89.95288086 152.38623047 C-85.44756274 144.76978211 -80.97208002 137.13598626 -76.5 129.5 C-68.85324694 116.44419004 -61.16462508 103.4135344 -53.45703125 90.39355469 C-46.7789891 79.11069128 -40.12654389 67.81317134 -33.5 56.5 C-22.43233841 37.60689009 -11.2950008 18.75826422 0 0 Z " fill="#C99AF3" transform="translate(814,347)"/>
<path d="M0 0 C3.88889425 1.29629808 4.166712 2.6003561 6.08203125 6.16015625 C6.67773926 7.25279785 7.27344727 8.34543945 7.88720703 9.47119141 C8.20095276 10.05652649 8.51469849 10.64186157 8.83795166 11.24493408 C10.49138234 14.32863874 12.17509897 17.39576168 13.85546875 20.46484375 C14.19823853 21.09273804 14.5410083 21.72063232 14.89416504 22.36755371 C18.89651082 29.67898098 23.11445336 36.86060267 27.34301758 44.04321289 C28.40363248 45.84630578 29.45919465 47.65238387 30.50878906 49.46191406 C31.50471974 51.15701808 32.52786698 52.83641585 33.57714844 54.49902344 C34.05442383 55.28051758 34.53169922 56.06201172 35.0234375 56.8671875 C35.45317871 57.5463623 35.88291992 58.22553711 36.32568359 58.92529297 C37.29386379 61.90414718 36.39684775 63.2550532 35 66 C34.12162123 67.62564869 33.20910949 69.23315759 32.26953125 70.82421875 C31.72087402 71.7582251 31.1722168 72.69223145 30.60693359 73.65454102 C30.01477051 74.65541748 29.42260742 75.65629395 28.8125 76.6875 C27.55017303 78.83558019 26.28847723 80.98403139 25.02734375 83.1328125 C24.36976074 84.25204102 23.71217773 85.37126953 23.03466797 86.52441406 C19.61735031 92.35261155 16.2478382 98.20849347 12.875 104.0625 C12.24827393 105.14942139 11.62154785 106.23634277 10.97583008 107.35620117 C7.97375202 112.56505347 4.97801928 117.77735424 2 123 C1.34 123 0.68 123 0 123 C-0.40613525 122.2879541 -0.81227051 121.5759082 -1.23071289 120.84228516 C-8.89928567 107.40105584 -16.5804248 93.96732027 -24.3125 80.5625 C-24.93970947 79.47469238 -25.56691895 78.38688477 -26.21313477 77.26611328 C-29.36382867 71.76891857 -29.36382867 71.76891857 -32.68579102 66.37548828 C-34.66266802 62.80219956 -34.06970505 60.91286847 -33 57 C-31.34155848 53.59165323 -29.3757649 50.40405603 -27.375 47.1875 C-26.19377651 45.24051438 -25.01415841 43.2925541 -23.8359375 41.34375 C-23.21299805 40.31894531 -22.59005859 39.29414062 -21.94824219 38.23828125 C-18.55550331 32.59902205 -15.28054503 26.89242398 -12 21.1875 C-11.37786621 20.10944092 -10.75573242 19.03138184 -10.11474609 17.9206543 C-6.68942781 11.97622832 -3.30781065 6.01065017 0 0 Z " fill="#C99BF3" transform="translate(925,536)"/>
<path d="M0 0 C0.66 0 1.32 0 2 0 C3.97608873 3.52343576 5.95157905 7.04720627 7.92651367 10.57128906 C8.59854934 11.7702747 9.27074892 12.9691685 9.94311523 14.16796875 C10.90912192 15.89038362 11.87449181 17.61315558 12.83984375 19.3359375 C13.42113037 20.37282715 14.00241699 21.4097168 14.60131836 22.47802734 C15.42885974 23.97017299 16.23693731 25.47387461 17 27 C6.77 27 -3.46 27 -14 27 C-13.11960027 22.59800136 -12.32464953 20.4326877 -10.12890625 16.69921875 C-9.55462891 15.72275391 -8.98035156 14.74628906 -8.38867188 13.74023438 C-7.4847168 12.22913086 -7.4847168 12.22913086 -6.5625 10.6875 C-5.96373047 9.66076172 -5.36496094 8.63402344 -4.74804688 7.57617188 C-4.17248047 6.60615234 -3.59691406 5.63613281 -3.00390625 4.63671875 C-2.47611572 3.74686279 -1.9483252 2.85700684 -1.40454102 1.94018555 C-0.94104248 1.29992432 -0.47754395 0.65966309 0 0 Z " fill="#CA9DF3" transform="translate(991,651)"/>
<path d="M0 0 C3.70421543 1.23473848 4.01577108 2.23444357 5.91796875 5.55078125 C6.44970703 6.47697266 6.98144531 7.40316406 7.52929688 8.35742188 C8.07650391 9.33259766 8.62371094 10.30777344 9.1875 11.3125 C9.74630859 12.27607422 10.30511719 13.23964844 10.88085938 14.23242188 C15 21.48995536 15 21.48995536 15 26 C5.43 26 -4.14 26 -14 26 C-12.61066083 21.83198249 -11.56508718 18.93286798 -9.43359375 15.29296875 C-8.94826172 14.45958984 -8.46292969 13.62621094 -7.96289062 12.76757812 C-7.45951172 11.91615234 -6.95613281 11.06472656 -6.4375 10.1875 C-5.67663086 8.88135742 -5.67663086 8.88135742 -4.90039062 7.54882812 C-1.16171288 1.16171288 -1.16171288 1.16171288 0 0 Z " fill="#CA9DF3" transform="translate(859,651)"/>
</svg>
