<svg xmlns="http://www.w3.org/2000/svg" width="1920" height="1080"><path d="M0 0h1920v1080H0V0z" fill="#C99AF3"/><path d="M818 237h2l1.155 2.098c7.396 13.418 14.877 26.769 22.642 39.978 4.16 7.092 8.206 14.24 12.203 21.424 5.133 9.224 10.396 18.362 15.741 27.465 4.26 7.275 8.407 14.607 12.509 21.973 4.174 7.493 8.4 14.944 12.78 22.32C906.955 389.01 916.499 406.002 926 423c2.508-3.222 4.672-6.587 6.813-10.063l1.957-3.16c2.318-3.853 4.439-7.81 6.58-11.763 2.956-5.4 6.027-10.735 9.087-16.077l2.11-3.684a7012.008 7012.008 0 0 1 30.465-52.707 5035.776 5035.776 0 0 0 11.808-20.33 3975.662 3975.662 0 0 1 9.322-16.019A3276.916 3276.916 0 0 0 1034 237c2.725 3.281 5.032 6.559 7.145 10.262l1.777 3.1 1.89 3.326 1.999 3.488c1.382 2.412 2.763 4.826 4.141 7.24a5056.41 5056.41 0 0 0 9.486 16.522l1.864 3.237c4.509 7.81 9.09 15.574 13.698 23.325 8.423 14.164 16.648 28.439 24.854 42.73a3039.065 3039.065 0 0 0 23.16 39.658c5.233 8.81 10.374 17.67 15.482 26.553 4.142 7.202 8.311 14.387 12.504 21.559 4.825 8.252 9.61 16.526 14.375 24.813A2138.48 2138.48 0 0 0 1182 489.5c8.423 14.164 16.648 28.439 24.854 42.73 6.973 12.136 13.992 24.24 21.146 36.27 8.423 14.164 16.648 28.439 24.854 42.73 6.973 12.136 13.992 24.24 21.146 36.27 7.788 13.097 15.41 26.286 23 39.5 2.045 3.56 4.092 7.12 6.14 10.677a5985.44 5985.44 0 0 1 3.85 6.698c2.572 4.467 5.16 8.901 7.94 13.242C1317 721 1317 721 1317 723c-59.985 1.372-119.998 2.287-180 2l-.971-1.73c-6.508-11.585-13.064-23.142-19.716-34.645-.6-1.045-1.2-2.09-1.817-3.168l-1.695-2.918-1.495-2.587c-1.163-2.087-1.163-2.087-3.306-2.952a350.566 350.566 0 0 1-1.95-4.676c-2.388-5.287-5.463-10.243-8.362-15.261l-2.158-3.755a4775.958 4775.958 0 0 0-18.812-32.372 8939.543 8939.543 0 0 1-6.966-11.932l-3.478-5.961a5851.027 5851.027 0 0 1-9.16-15.746l-1.928-3.32c-1.221-2.103-2.44-4.208-3.657-6.313l-1.666-2.867-1.46-2.52c-1.355-2.199-2.82-4.239-4.403-6.277-3.23 1.353-4.678 2.562-6.402 5.598l-1.253 2.167-1.283 2.298-1.325 2.333c-.862 1.519-1.72 3.04-2.574 4.563a153.272 153.272 0 0 1-2.995 4.99l-1.418 2.301-1.203 1.89c-1.09 3.706 1.414 6.786 3.125 10.005a726.785 726.785 0 0 0 2.078 3.668l1.175 2.076c4.12 7.25 8.352 14.435 12.568 21.63 4.86 8.316 9.572 16.708 14.256 25.123 4.558 8.171 9.254 16.255 13.992 24.323 4.868 8.311 9.58 16.703 14.26 25.121 3.934 7.061 7.966 14.054 12.156 20.966C1102 729.79 1102 729.79 1102 732c-11.563.11-23.11.09-34.668-.288-29.697-.966-59.402-.844-89.11-.816-7.933.008-15.866.01-23.799.01-14.137.002-28.275.009-42.412.019-13.702.009-27.404.016-41.106.02h-2.576l-12.798.005c-35.177.01-70.354.028-105.531.05.676-2.86 1.494-5.161 2.934-7.73l1.2-2.155 1.303-2.303 1.365-2.431a930.404 930.404 0 0 1 10.103-17.436c3.832-6.474 7.592-12.988 11.345-19.508a4684.657 4684.657 0 0 1 15.188-26.187c3.546-6.069 7.086-12.14 10.562-18.25 3.689-6.482 7.434-12.93 11.188-19.375l1.802-3.102c.575-.984 1.149-1.97 1.74-2.984l1.67-2.874c1.822-3.035 3.785-5.955 5.843-8.835 1.094-2.646.595-4.116-.243-6.83-2.017-4.212-4.408-8.211-6.75-12.25l-1.883-3.375-1.851-3.203-1.68-2.935c-1.675-2.463-1.675-2.463-4.556-3.06L807 566l-1.139 1.99c-7.035 12.277-14.116 24.517-21.423 36.635a1869.328 1869.328 0 0 0-16.002 27.035 2079.768 2079.768 0 0 1-10.022 17.082l-3.513 5.94c-.76 1.283-1.522 2.565-2.286 3.845-1.07 1.793-2.132 3.59-3.193 5.387l-1.857 3.124c-1.656 2.911-1.656 2.911-2.529 6.092-1.174 3.253-2.56 4.51-5.036 6.87a136.778 136.778 0 0 0-3.793 6.207l-1.062 1.826a1406.34 1406.34 0 0 0-3.332 5.78 4753.46 4753.46 0 0 1-3.28 5.662c-1.008 1.74-2.011 3.481-3.014 5.223l-1.156 1.867c-1.152 2.058-2.065 4.055-2.985 6.22-4.6 10.035-4.6 10.035-9.24 12.006-5.6 1.178-11.28.597-16.943.205-1.9-.074-3.8-.14-5.702-.2-4.06-.136-8.115-.311-12.173-.515-6.318-.302-12.633-.43-18.958-.511l-3.205-.042-6.467-.084c-5.49-.078-10.981-.192-16.471-.306l-3.325-.069-6.67-.138c-4.485-.092-8.97-.18-13.456-.267-24.594-.48-49.183-1.035-73.768-1.864.894-4.04 2.702-7.314 4.75-10.875l1.203-2.115c4.38-7.66 8.888-15.245 13.39-22.834A4311.142 4311.142 0 0 0 566.5 664.5c5.496-9.386 11.01-18.76 16.551-28.12a3480.082 3480.082 0 0 0 9.004-15.306l1.064-1.82c.356-.608.71-1.215 1.077-1.84l2.179-3.726 1.092-1.867a2230.141 2230.141 0 0 1 15.158-25.509c5.705-9.46 11.255-19 16.75-28.582 4.893-8.512 9.926-16.931 15-25.335 4.465-7.415 8.82-14.887 13.125-22.395 5.538-9.655 11.203-19.223 16.95-28.755 5.99-9.947 11.834-19.977 17.67-30.016a6891.86 6891.86 0 0 1 10.442-17.854l1.098-1.872c5.11-8.717 10.24-17.422 15.387-26.117A6078.01 6078.01 0 0 0 732.5 382.5c5.497-9.386 11.01-18.76 16.551-28.12a3480.082 3480.082 0 0 0 9.004-15.306l1.064-1.82c.356-.608.71-1.215 1.077-1.84l2.179-3.726 1.092-1.867a2230.141 2230.141 0 0 1 15.158-25.509c5.695-9.443 11.238-18.966 16.722-28.534 5.186-9.025 10.517-17.956 15.907-26.86l1.797-2.973 1.583-2.609A89.648 89.648 0 0 0 818 237z" fill="#F9FCFD"/><path d="M1036 347c3.677 1.45 4.996 3.126 6.926 6.531l1.64 2.855 1.746 3.114 1.856 3.245c1.299 2.27 2.592 4.544 3.882 6.819 3.082 5.431 6.204 10.84 9.325 16.248l1.876 3.26c4.523 7.846 9.12 15.645 13.749 23.428 8.423 14.164 16.648 28.439 24.854 42.73 6.973 12.136 13.992 24.24 21.146 36.27 8.423 14.164 16.648 28.439 24.854 42.73 6.973 12.136 13.992 24.24 21.146 36.27 8.423 14.164 16.648 28.439 24.854 42.73 7.83 13.626 15.73 27.205 23.78 40.701C1228 671.334 1228 671.334 1228 674c-4.603.736-9.01 1.123-13.67 1.114h-3.88l-4.134-.016-4.274-.005c-3.73-.003-7.46-.013-11.19-.024-3.815-.01-7.63-.015-11.444-.02-7.47-.01-14.939-.028-22.408-.049l-1.068-1.9c-6.493-11.538-13-23.057-19.807-34.413a2239.027 2239.027 0 0 1-17.62-30.128A3485.56 3485.56 0 0 0 1106 587a3984.948 3984.948 0 0 1-14.375-24.813 2132.447 2132.447 0 0 0-15.813-27 1513.976 1513.976 0 0 1-15.358-26.376c-4.516-7.947-9.12-15.842-13.736-23.732-2.932-5.012-5.85-10.03-8.718-15.079h-2l-1.25 2.272c-1.57 2.851-3.144 5.701-4.72 8.55-.673 1.22-1.346 2.44-2.018 3.662a478.551 478.551 0 0 1-12.986 22.21c-3.234 5.277-6.297 10.65-9.356 16.03a2966.6 2966.6 0 0 1-3.197 5.606c-3.889 6.753-3.889 6.753-7.473 13.67h-2l-1.155-2.098c-7.575-13.741-15.228-27.42-23.187-40.945a1084.031 1084.031 0 0 1-3.17-5.423 205.265 205.265 0 0 0-3.03-4.998l-1.419-2.34-1.267-2.024c-1.438-4.048-.193-7.284 1.588-11.043l1.745-2.996 1.96-3.395 2.122-3.613c.73-1.257 1.46-2.515 2.188-3.773a2457.4 2457.4 0 0 1 5.572-9.553c1.572-2.685 3.136-5.375 4.701-8.065 2.281-3.916 4.567-7.83 6.856-11.742A3456.705 3456.705 0 0 0 997.5 411a5413.46 5413.46 0 0 1 17.992-30.988c2.478-4.24 4.939-8.488 7.39-12.742l1.93-3.338a2020.46 2020.46 0 0 0 3.659-6.356l1.666-2.877 1.46-2.536c1.306-2.014 2.637-3.55 4.403-5.163zM814 347c2.285.188 2.285.188 5 1 1.746 2.063 1.746 2.063 3.438 5l.991 1.694A449.247 449.247 0 0 1 827 361l1.505 2.678c2.32 4.13 4.635 8.263 6.938 12.402 4.099 7.36 8.29 14.657 12.557 21.92a1220.846 1220.846 0 0 1 14 24.5c5.82 10.455 11.804 20.803 17.855 31.125a1355.52 1355.52 0 0 1 9.594 16.668c1.512 2.729 1.512 2.729 3.32 5.258 1.557 3.099 1.16 4.154.231 7.449-1.252 2.542-1.252 2.542-2.852 5.262l-1.809 3.104-1.964 3.322-3.044 5.21a3458.82 3458.82 0 0 1-3.182 5.43c-3.478 5.934-6.904 11.899-10.337 17.86a86605.34 86605.34 0 0 1-3.667 6.355A2845.62 2845.62 0 0 0 859 542c-2.79-1.395-3.313-3.184-4.75-5.938-1.994-3.75-4.038-7.435-6.25-11.062a217.384 217.384 0 0 1-5.688-9.934c-3.34-6.151-6.794-12.235-10.271-18.31-1.041-1.819-2.08-3.64-3.12-5.461-3.525-6.17-7.095-12.295-10.89-18.305C817 471 817 471 817 468c-4.358 3.712-6.708 8.442-9.438 13.375a4492.688 4492.688 0 0 1-3.234 5.742l-1.674 2.972c-2.559 4.503-5.196 8.958-7.841 13.411a3305.637 3305.637 0 0 0-10.887 18.457l-1.061 1.815-2.153 3.681a2494.941 2494.941 0 0 1-17.337 29.235c-5.847 9.695-11.538 19.474-17.177 29.292-3.469 6.037-6.974 12.043-10.582 17.998-3.959 6.552-7.813 13.165-11.678 19.772a6515.011 6515.011 0 0 1-16.652 28.312l-3.02 5.107-1.875 3.163-1.624 2.741L699 666l-1.037 2.113c-1.168 2.213-2.266 4.046-3.963 5.887-3.18.686-5.01.8-8.145.531l-5.123-.218-2.79-.163c-4.194-.214-8.386-.263-12.584-.321-3.386-.048-6.771-.113-10.157-.184l-3.424-.072-3.465-.073-7.11-.145c-5.735-.116-11.468-.235-17.202-.355.716-3.974 1.808-6.796 3.852-10.297l1.806-3.115 1.967-3.338c.68-1.164 1.359-2.33 2.037-3.494 5.157-8.833 10.424-17.6 15.71-26.357 4.467-7.415 8.821-14.89 13.128-22.399 5.538-9.655 11.203-19.223 16.95-28.755 5.99-9.947 11.834-19.977 17.67-30.016a6891.86 6891.86 0 0 1 10.442-17.854l1.098-1.872c5.11-8.717 10.24-17.422 15.387-26.117A6093.09 6093.09 0 0 0 737.5 476.5a9726.53 9726.53 0 0 1 23.043-39.106A8630.03 8630.03 0 0 0 780.5 403.5c11.068-18.893 22.205-37.742 33.5-56.5z" fill="#C99AF3"/><path d="M925 536c3.889 1.296 4.167 2.6 6.082 6.16l1.805 3.311.951 1.774c1.653 3.084 3.337 6.15 5.017 9.22l1.04 1.903c4.002 7.311 8.22 14.493 12.448 21.675 1.06 1.803 2.116 3.61 3.166 5.419.996 1.695 2.019 3.374 3.068 5.037l1.446 2.368 1.303 2.058c.968 2.98.07 4.33-1.326 7.075a145.721 145.721 0 0 1-2.73 4.824l-1.663 2.83-1.794 3.034c-1.263 2.148-2.525 4.296-3.786 6.445l-1.992 3.391c-3.418 5.829-6.787 11.684-10.16 17.538l-1.9 3.294A3909.924 3909.924 0 0 0 927 659h-2l-1.23-2.158a9814.417 9814.417 0 0 0-23.082-40.28l-1.901-3.296c-3.15-5.497-3.15-5.497-6.473-10.89-1.977-3.574-1.384-5.463-.314-9.376 1.658-3.408 3.624-6.596 5.625-9.813a4432.11 4432.11 0 0 0 3.54-5.843l1.887-3.106c3.392-5.639 6.667-11.346 9.948-17.05l1.885-3.267A1046.5 1046.5 0 0 0 925 536z" fill="#C99BF3"/><path d="M991 651h2a37002.672 37002.672 0 0 1 7.943 14.168 15586.741 15586.741 0 0 1 4.658 8.31A119.847 119.847 0 0 1 1008 678h-31c.88-4.402 1.675-6.567 3.871-10.3l1.74-2.96 1.827-3.053 1.814-3.11 1.744-2.94 1.6-2.697L991 651zM859 651c3.704 1.235 4.016 2.234 5.918 5.55l1.611 2.807 1.659 2.956 1.693 2.92C874 672.49 874 672.49 874 677h-29c1.39-4.168 2.435-7.067 4.566-10.707l1.471-2.525 1.525-2.58 1.538-2.64c3.738-6.386 3.738-6.386 4.9-7.548z" fill="#CA9DF3"/></svg>